<?xml version="1.0" standalone="no"?>
<!DOCTYPE svg PUBLIC "-//W3C//DTD SVG 20010904//EN"
 "http://www.w3.org/TR/2001/REC-SVG-20010904/DTD/svg10.dtd">
<svg version="1.0" xmlns="http://www.w3.org/2000/svg"
 width="164.000000pt" height="175.000000pt" viewBox="0 0 164.000000 175.000000"
 preserveAspectRatio="xMidYMid meet">

<g transform="translate(0.000000,175.000000) scale(0.100000,-0.100000)"
fill="#000000" stroke="none">
<path d="M55 1548 c-3 -7 -4 -328 -3 -713 l3 -700 765 0 765 0 0 155 c0 148
-1 155 -20 155 -19 0 -20 -8 -23 -132 l-3 -133 -719 0 -720 0 0 565 0 565 720
0 720 0 2 -402 c3 -395 3 -403 23 -403 20 0 20 7 20 525 l0 525 -763 3 c-605
2 -764 0 -767 -10z m955 -113 l0 -75 -455 0 -455 0 0 75 0 75 455 0 455 0 0
-75z m530 0 l0 -75 -240 0 -240 0 0 75 0 75 240 0 240 0 0 -75z"/>
<path d="M1144 1445 c-4 -9 -2 -21 4 -27 15 -15 44 -1 40 19 -4 23 -36 29 -44
8z"/>
<path d="M1287 1454 c-16 -16 -7 -44 14 -44 15 0 20 5 17 22 -3 22 -19 33 -31
22z"/>
<path d="M1414 1445 c-4 -9 -2 -21 4 -27 15 -15 44 -1 40 19 -4 23 -36 29 -44
8z"/>
<path d="M416 1207 c-14 -10 -17 -23 -14 -45 4 -28 2 -32 -19 -32 -23 0 -23
-1 -23 -130 l0 -130 150 0 150 0 0 130 c0 129 0 130 -23 130 -21 0 -23 4 -19
32 3 22 0 35 -14 45 -24 18 -28 17 -63 -13 l-31 -26 -31 26 c-35 30 -39 31
-63 13z m54 -42 c22 -24 22 -25 4 -25 -27 0 -59 24 -50 38 11 18 20 15 46 -13z
m127 8 c5 -14 -32 -36 -53 -31 -13 3 -12 6 2 26 16 24 44 26 51 5z m-107 -108
l0 -45 -55 0 -55 0 0 45 0 45 55 0 55 0 0 -45z m148 -2 l3 -43 -55 0 -56 0 0
46 0 45 53 -3 52 -3 3 -42z m-148 -128 l0 -45 -55 0 -55 0 0 45 0 45 55 0 55
0 0 -45z m150 0 l0 -45 -55 0 -55 0 0 45 0 45 55 0 55 0 0 -45z"/>
<path d="M850 1120 c0 -19 7 -20 210 -20 203 0 210 1 210 20 0 19 -7 20 -210
20 -203 0 -210 -1 -210 -20z"/>
<path d="M853 935 c-3 -9 -1 -21 4 -26 5 -5 92 -8 209 -7 191 3 199 4 199 23
0 19 -8 20 -203 23 -177 2 -203 0 -209 -13z"/>
<path d="M332 788 c-8 -8 -12 -51 -12 -130 0 -106 2 -118 19 -128 11 -6 87
-10 175 -10 127 0 157 3 170 16 13 12 16 38 16 120 0 58 -5 114 -10 125 -10
18 -23 19 -178 19 -117 0 -172 -4 -180 -12z m326 -125 l3 -93 -151 0 -150 0 0
95 0 96 148 -3 147 -3 3 -92z"/>
<path d="M900 781 c-5 -11 -10 -67 -10 -125 0 -82 3 -108 16 -120 13 -13 43
-16 170 -16 88 0 164 4 175 10 17 10 19 22 19 128 0 79 -4 122 -12 130 -8 8
-63 12 -180 12 -155 0 -168 -1 -178 -19z m330 -116 l0 -95 -150 0 -150 0 0 88
c0 49 3 92 7 95 3 4 71 7 150 7 l143 0 0 -95z"/>
<path d="M333 445 c-11 -31 13 -36 178 -33 156 3 164 4 164 23 0 19 -8 20
-168 23 -146 2 -168 0 -174 -13z"/>
<path d="M904 445 c-12 -31 7 -35 170 -35 163 0 191 6 179 36 -8 21 -341 20
-349 -1z"/>
<path d="M332 328 c3 -22 8 -23 109 -26 84 -2 109 0 118 12 24 29 1 36 -115
36 -114 0 -115 0 -112 -22z"/>
<path d="M903 335 c-11 -30 12 -36 123 -33 101 3 109 4 109 23 0 19 -8 20
-113 23 -95 2 -113 0 -119 -13z"/>
</g>
</svg>
